<svg xmlns="http://www.w3.org/2000/svg" xmlns:xlink="http://www.w3.org/1999/xlink" viewBox="0 0 261 165">
  <defs>
    <path id="a" d="M0 0h260.858v164.054H0z" />
  </defs>
  <g fill="none" fill-rule="evenodd">
    <path
      d="M258.716 76.783l-62.5-73.03a7.51 7.51 0 10-11.506 9.427l56.62 68.64-55.991 67.335H161.15l52.914-61.569c.034-.038.065-.076.098-.114l.01.004c1.475-1.62 2.13-3.513 2.096-5.379.035-1.865-.621-3.758-2.095-5.378l-.011.003c-.033-.038-.064-.076-.098-.113L150.879 3.871a1.94 1.94 0 00-.043-.05 7.503 7.503 0 00-6.46-3.68H100a7.51 7.51 0 00-7.511 7.511c0 1.26.172 2.568.86 3.49l58.809 71.234-50.122 60.133c-.298.298-4.617 6.453-12.211 6.453H29.964c-8.141 0-14.892-6.353-14.892-14.792V29.931c0-7.346 6.75-14.89 15.076-14.89h37.24c4.39 0 7.512-2.999 7.512-7.389C74.9 3.262 71.779 0 67.389 0L29.783.15C11.968.148 0 14.84 0 29.778V134.17c0 16.083 14.179 29.782 29.783 29.782h59.844a30.068 30.068 0 009.313-1.469c8.25-2.674 13.23-8.168 14.195-9.332l56.408-65.74c2.668-3.027 3.023-7.417.044-10.692l-.011.003-.097-.113-53.357-61.569h24.631l55.76 67.058-58.677 70.78c-.02.02.017.081.1.176a7.511 7.511 0 006.65 11h44.377a7.51 7.51 0 006.46-3.68l.042-.05 63.187-72.738.097-.114.01.004c2.979-3.276 2.625-7.666-.043-10.693"
      fill="currentColor"
    />
  </g>
</svg>
