<svg version="1.1" id="Capa_1" xmlns="http://www.w3.org/2000/svg" x="0" y="0" viewBox="0 0 274.2 139.3" xml:space="preserve">
  <style>
    .st0{fill:#e2042f}.st2{fill:#fff}
  </style>
  <path class="st0" d="M67.3 123.6c-.4 1.3-.9 2.3-1.8 3.1-1 1-2.4 1.7-4.1 2-.8.2-1.4.2-2.3.2-6.2 0-9.3-4.3-9.3-10s3-10.3 9.2-10.3c2.1 0 3.7.4 5.1 1.2 1.5.9 2.6 2.3 3.1 3l4.1-2c-2.5-3.8-6.5-5.4-11.6-5.4-8.9 0-14.5 5-14.5 13.3 0 8 4.9 13.2 14 13.2 6.2 0 12.3-2.6 13-8.5h-4.9v.2zM85.8 132.4c-7.5 0-11.7-3.6-11.7-10.1 0-6.4 4.3-10.1 11.7-10.1 7.5 0 11.7 3.6 11.7 10.1s-4.2 10.1-11.7 10.1zm0-17.4c-4.6 0-7.6 2.9-7.6 7.3s3 7.3 7.6 7.3 7.6-2.9 7.6-7.3-3-7.3-7.6-7.3zM106.1 131.7h-3.9v-16h-4.8V113h4.8v-1c0-5.1 2.1-7.3 6.8-7.3 1.1 0 2.4.1 3.4.2h.1v2.8h-.1c-.5-.1-1.4-.2-2.4-.2-2.8 0-3.9 1.1-3.9 4v1.5h5.9v2.8h-5.9v15.9zM152.2 108.8h-3.9v-3.9h3.9v3.9zM152.2 131.7h-3.9v-17l3.7-1.7h.2v18.7zM119.1 108.8h-3.9v-3.9h3.9v3.9zM119.1 131.7h-3.9v-17l3.9-1.8v18.8z"/>
  <g>
    <path class="st0" d="M165 132.4c-4.8 0-8-1.5-9.1-4.2v-.1l3.7-1.8v.2c.4 2.1 2.3 3.2 5.8 3.2 3.8 0 5.9-1.1 5.9-3.1 0-1.8-2.7-2.2-5.9-2.7-4.3-.7-9.1-1.4-9.1-5.7 0-3.8 3.3-5.9 9.1-5.9 3.1 0 7.1.6 8.6 3.5l.1.1-3.4 1.6v-.1c-.6-1.6-2.2-2.3-5-2.3-3.2 0-5.4 1.1-5.4 2.7 0 1.2 1.2 2 3.8 2.5l6.1 1.1c3.6.7 5.2 2.2 5.2 5 0 4-3.4 6-10.4 6z"/>
  </g>
  <g>
    <path class="st0" d="M132.5 132.4c-6 0-10.4-4.3-10.4-10.1 0-5.7 4.5-10.1 10.4-10.1 3.4 0 6 1 8 2.9v-8.6l3.7-1.7h.2v22.4c0 1.2.1 2.7.1 4.3v.1h-3.9v-.1c-.1-.7-.1-1.5-.1-2.3-1.9 2.1-4.7 3.2-8 3.2zm.9-17.4c-4.4 0-7.2 2.9-7.2 7.3s2.8 7.3 7.2 7.3 7.2-2.9 7.2-7.3c-.1-4.4-2.9-7.3-7.2-7.3z"/>
  </g>
  <g>
    <path class="st0" d="M183.9 106.5c0-1 .8-1.8 1.8-1.8h8.6c6.3 0 10.4 3.4 10.4 8.8v.1c0 6-5 9.1-10.9 9.1h-6.3v7.8c0 1-.8 1.8-1.8 1.8s-1.8-.8-1.8-1.8v-24zm10.1 12.9c4.3 0 7.1-2.3 7.1-5.7v-.1c0-3.7-2.8-5.6-7-5.6h-6.5v11.4h6.4zM205.8 126.3c0-4.4 3.6-6.7 8.6-6.7 2.5 0 4.3.3 6 .9v-.7c0-3.4-2.1-5.2-5.8-5.2-2 0-3.6.4-5.1 1.1-.2.1-.4.1-.6.1-.8 0-1.5-.7-1.5-1.5 0-.7.5-1.2 1-1.4 2-.8 4-1.4 6.6-1.4 2.9 0 5.2.8 6.6 2.3 1.4 1.4 2.1 3.5 2.1 6.1v10.8c0 1-.8 1.7-1.7 1.7-1 0-1.7-.7-1.7-1.6v-1.5c-1.4 1.8-3.7 3.4-7.1 3.4-3.7-.1-7.4-2.3-7.4-6.4zm14.7-1.6v-1.8c-1.4-.5-3.3-.9-5.6-.9-3.6 0-5.6 1.5-5.6 4v.1c0 2.4 2.2 3.8 4.8 3.8 3.6-.1 6.4-2.2 6.4-5.2zM227.3 138c-.5-.2-1.1-.6-1.1-1.5s.7-1.5 1.5-1.5c.3 0 .5.1.8.2.6.2 1.1.3 2 .3 1.7 0 2.8-.9 3.7-3.2l.2-.3-8.2-17.8c-.1-.3-.2-.6-.2-.9 0-1 .8-1.7 1.8-1.7.9 0 1.4.5 1.7 1.4l6.6 15.3L242 113c.3-.7.8-1.3 1.7-1.3s1.7.7 1.7 1.7c0 .3-.1.6-.2.9l-7.8 18.7c-1.8 4.2-3.7 5.8-6.9 5.8-1.1-.2-2.1-.5-3.2-.8z"/>
  </g>
  <g>
    <path d="M249.3 1.1h-207C19.8 1.1 1.4 19.5 1.4 42v3.2c0 22.5 18.4 40.9 40.9 40.9h171.4c22.5 0 40.9-18.4 40.9-40.9V6.4c.1-2.9-2.3-5.3-5.3-5.3z" fill="#ffcb00"/>
    <path class="st0" d="M268.2 1.1h-207C38.7 1.1 20.3 19.5 20.3 42v3.2c0 22.5 18.4 40.9 40.9 40.9h171.4c22.5 0 40.9-18.4 40.9-40.9V6.4c.1-2.9-2.3-5.3-5.3-5.3z"/>
  </g>
  <g>
    <path class="st2" d="M67.9 52.2H51.2c-2.4 0-4.4-1.7-4.4-4.1 0-1.9.8-3.3 2.1-4.9l17.6-20.5c1.7-2 3-3 5.6-3 2.4 0 4.3 1.9 4.3 4.2v21h2.1c2 0 3.7 1.6 3.7 3.7 0 2-1.6 3.6-3.7 3.6h-2.1V57c0 2.4-1.9 4.2-4.3 4.2s-4.2-1.9-4.2-4.2v-4.8zm0-7.3V32.3L57.1 44.9h10.8zM88.3 54.5l7.9-9.4-7.2-8.3c-1-1.2-1.4-2.2-1.4-3.4 0-2.5 1.9-4.1 4.1-4.1 1.7 0 3 .8 4.1 2.3l5.7 7.7 5.9-7.7c1-1.3 2.3-2.3 3.8-2.3 2.3 0 4.1 1.6 4.1 3.8 0 1.2-.5 2.1-1.2 3l-7.5 8.8 7.8 8.9c1 1.2 1.4 2.2 1.4 3.4 0 2.5-1.9 4.1-4.1 4.1-1.7 0-3-.8-4.1-2.3l-6.3-8.2-6.3 8.3c-1 1.3-2.3 2.3-3.8 2.3-2.3 0-4.1-1.6-4.1-3.8 0-1.3.4-2.2 1.2-3.1zM119.6 45.5c0-9 6.8-16.3 16.3-16.3 4.7 0 8 1.3 10.6 3.5.6.5 1.4 1.5 1.4 3 0 2.2-1.8 3.9-4 3.9-1.2 0-2-.5-2.6-.9-1.6-1.2-3.2-2-5.5-2-4.4 0-7.5 3.9-7.5 8.5v.1c0 4.8 3.1 8.6 7.9 8.6 2.3 0 4.1-.8 5.8-2.1.5-.3 1.3-.8 2.4-.8 2.1 0 3.7 1.7 3.7 3.8 0 1.2-.5 2.1-1.3 2.8-2.6 2.4-5.9 4-11 4-9.4 0-16.2-7.2-16.2-16.1zM152.4 52c0-6.9 5.2-10 12.5-10 3.1 0 5.4.5 7.6 1.3v-.5c0-3.7-2.3-5.7-6.7-5.7-2.4 0-4.4.3-6.1.9-.5.2-.9.2-1.3.2-2 0-3.7-1.6-3.7-3.6 0-1.6 1-2.9 2.4-3.4 2.8-1 5.8-1.6 9.9-1.6 4.8 0 8.3 1.3 10.5 3.5 2.3 2.3 3.4 5.7 3.4 9.9v14c0 2.4-1.9 4.2-4.3 4.2-2.6 0-4.2-1.8-4.2-3.7v-.1c-2.1 2.4-5.1 3.9-9.4 3.9-5.8.2-10.6-3.2-10.6-9.3zm20.2-2v-1.6c-1.5-.7-3.5-1.2-5.6-1.2-3.8 0-6.1 1.5-6.1 4.3v.1c0 2.4 2 3.8 4.8 3.8 4.1 0 6.9-2.3 6.9-5.4zM188.6 33.9c0-2.4 2-4.4 4.4-4.4s4.4 2 4.4 4.4v1.4c1.3-3 3.4-5.8 6-5.8 2.7 0 4.3 1.8 4.3 4.3 0 2.3-1.5 3.7-3.3 4.1-4.5 1-7 4.5-7 10.7v8.2c0 2.4-2 4.4-4.4 4.4s-4.4-2-4.4-4.4V33.9zM243.5 56.9c0 2.4-2 4.4-4.4 4.4s-4.4-2-4.4-4.4v-.4c-2.1 2.9-5.1 5-9.7 5-7.2 0-14.2-5.7-14.2-16.1v-.1c0-10.4 6.8-16.1 14.2-16.1 4.7 0 7.6 2.1 9.7 4.6V22.6c0-2.4 2-4.4 4.4-4.4s4.4 2 4.4 4.4v34.3zm-23.8-11.6c0 5.3 3.5 8.7 7.6 8.7s7.5-3.4 7.5-8.6v-.1c0-5.2-3.4-8.6-7.5-8.6-4.2 0-7.6 3.4-7.6 8.6z"/>
  </g>
</svg>
