<svg id="Capa_1" data-name="Capa 1" xmlns="http://www.w3.org/2000/svg" viewBox="0 0 386.8 138.8">
  <path fill="#e2042f" d="M175.1 123.5a6.3 6.3 0 0 1-1.7 3 7.8 7.8 0 0 1-4.1 2 11.4 11.4 0 0 1-2.3.3c-6.2 0-9.3-4.3-9.3-10s3-10.3 9.1-10.3a9.5 9.5 0 0 1 5 1.3 10.8 10.8 0 0 1 3.2 3l4-2c-2.5-3.8-6.4-5.4-11.5-5.4-8.9 0-14.5 5-14.5 13.3 0 8 4.9 13.2 14 13.2 6.2 0 12.3-2.5 13-8.5Zm18.5 8.8c-7.5 0-11.7-3.6-11.7-10s4.3-10.2 11.7-10.2 11.7 3.6 11.7 10.1-4.2 10-11.7 10Zm0-17.4c-4.6 0-7.6 2.9-7.6 7.3s3 7.3 7.6 7.3 7.6-2.8 7.6-7.3-3-7.3-7.6-7.3Zm20.3 16.7H210v-16h-4.8v-2.8h4.8v-1c0-5 2.1-7.3 6.8-7.3a26.1 26.1 0 0 1 3.4.2v2.8a13.3 13.3 0 0 0-2.4-.3c-2.9 0-4 1.2-4 4v1.6h6v2.7h-5.9v16Zm46.1-22.9h-3.8v-4h3.9v4Zm0 22.9h-3.8v-17l3.7-1.7h.2v18.7Zm-33.1-22.9H223v-4h3.9v4Zm0 22.9H223v-17l3.9-1.8v18.8Zm45.9.7c-4.8 0-8-1.5-9-4.2v-.1l3.6-1.8v.2c.4 2 2.3 3.1 5.9 3.1 3.8 0 5.9-1 5.9-3 0-1.8-2.8-2.2-6-2.7-4.2-.7-9-1.5-9-5.7 0-3.8 3.3-6 9.1-6 3.1 0 7.2.7 8.6 3.5v.2l-3.3 1.6v-.2c-.7-1.6-2.3-2.3-5.1-2.3-3.3 0-5.4 1-5.4 2.7 0 1.2 1.2 2 3.8 2.5l6.1 1.1c3.6.7 5.3 2.2 5.3 5 0 4.1-3.4 6.1-10.4 6.1Zm-32.4 0c-6 0-10.5-4.3-10.5-10s4.5-10.2 10.5-10.2a10.7 10.7 0 0 1 8 3v-8.6l3.7-1.7h.1v22.4l.2 4.3v.1h-3.9l-.1-2.4a11 11 0 0 1-8 3.1Zm.8-17.4c-4.4 0-7.2 2.9-7.2 7.3s2.8 7.3 7.2 7.3 7.2-2.8 7.2-7.3-2.9-7.3-7.2-7.3Zm50.5-8.6a1.8 1.8 0 0 1 1.8-1.8h8.7c6.3 0 10.3 3.4 10.3 8.9 0 6-5 9.2-10.8 9.2h-6.4v7.8a1.8 1.8 0 1 1-3.6 0Zm10.1 13c4.3 0 7-2.3 7-5.7 0-3.8-2.7-5.7-7-5.7h-6.5v11.4Zm11.8 6.8c0-4.4 3.6-6.7 8.7-6.7a19.6 19.6 0 0 1 6 1v-.8c0-3.4-2.1-5.2-5.8-5.2a12.2 12.2 0 0 0-5 1 2 2 0 0 1-.7.2 1.5 1.5 0 0 1-1.5-1.5 1.6 1.6 0 0 1 1-1.5 16.4 16.4 0 0 1 6.6-1.3c3 0 5.2.8 6.7 2.3a8.2 8.2 0 0 1 2.1 6v10.9a1.7 1.7 0 0 1-1.7 1.7 1.6 1.6 0 0 1-1.7-1.6v-1.5a8.7 8.7 0 0 1-7.2 3.4c-3.8 0-7.5-2.2-7.5-6.4Zm14.8-1.6v-1.7a17.9 17.9 0 0 0-5.6-.9c-3.6 0-5.7 1.5-5.7 4 0 2.4 2.2 3.8 4.8 3.8 3.6 0 6.5-2.1 6.5-5.2Zm6.8 13.3a1.5 1.5 0 0 1-1.1-1.5 1.5 1.5 0 0 1 1.5-1.5 2.2 2.2 0 0 1 .7.2 5.1 5.1 0 0 0 2 .3c1.8 0 2.8-1 3.8-3.2l.1-.3L334 114a3 3 0 0 1-.2-.9 1.7 1.7 0 0 1 1.8-1.7 1.8 1.8 0 0 1 1.7 1.3L344 128l6-15.3a1.8 1.8 0 0 1 1.7-1.3 1.7 1.7 0 0 1 1.7 1.7 2.9 2.9 0 0 1-.2.9l-7.8 18.6c-1.8 4.3-3.7 5.8-6.9 5.8a9.3 9.3 0 0 1-3.3-.6Z"/>
  <path d="M361.4 1H41.8a41 41 0 0 0-41 40.9V45a41 41 0 0 0 41 41h284a41 41 0 0 0 41-41V6.3a5.4 5.4 0 0 0-5.4-5.4Z" fill="#ffcb00"/>
  <path fill="#e2042f"  d="M380.4 1H60.7a41 41 0 0 0-41 40.9V45a41 41 0 0 0 41 41h284a41 41 0 0 0 41-41V6.3a5.4 5.4 0 0 0-5.3-5.4Z"/>
  <path d="M54.7 60c-3-3-4.8-7.3-4.8-15.4 0-12.6 5.7-22.2 17.8-22.2a19.1 19.1 0 0 1 9.8 2.4 4.3 4.3 0 0 1 2.4 3.8 4.2 4.2 0 0 1-4.3 4.1 4.8 4.8 0 0 1-2.2-.6 11.3 11.3 0 0 0-6-1.6c-5 0-7.6 4-8.2 9.4a14 14 0 0 1 8.4-2.6c8.1 0 14.3 4.4 14.3 12.9v.1c0 8.3-6.7 14-15.5 14A15 15 0 0 1 54.7 60Zm18.4-9.3v-.1c0-3.4-2.7-6-7.1-6s-7 2.5-7 6 2.7 6 7 6 7-2.4 7-5.9Zm15.6 6.6 8-9.4-7.2-8.3a5 5 0 0 1-1.5-3.4 4 4 0 0 1 4-4 5 5 0 0 1 4.1 2.2L102 42l5.8-7.7a5.1 5.1 0 0 1 3.9-2.2 3.9 3.9 0 0 1 4 3.9 4.7 4.7 0 0 1-1.1 3l-7.6 8.8 7.8 9a5 5 0 0 1 1.4 3.3 4 4 0 0 1-4 4A5 5 0 0 1 108 62l-6.3-8.3-6.2 8.3a5 5 0 0 1-3.9 2.2 3.9 3.9 0 0 1-4-3.8 4.4 4.4 0 0 1 1.1-3Zm57.5-25.8-3.1.8a7 7 0 0 1-1.6.3 3.9 3.9 0 0 1-1-7.7l5.8-1.6a15.8 15.8 0 0 1 4.2-.8h.1a4.4 4.4 0 0 1 4.4 4.4v32.7a4.4 4.4 0 1 1-8.8 0Zm19 23.5 11.5-9.4c5-4.2 7-6.4 7-9.8s-2.3-5.3-5.5-5.3c-2.5 0-4.3 1.1-6.6 3.6a4.1 4.1 0 0 1-3 1.2 4 4 0 0 1-4-4 4.5 4.5 0 0 1 1-2.8c3.2-3.8 7-6 13.2-6 8.4 0 14 5 14 12.5v.1c0 6.8-3.5 10.2-10.7 15.8l-6.6 5.1h14.2a3.9 3.9 0 0 1 3.9 3.9 3.8 3.8 0 0 1-3.9 3.8h-22c-2.8 0-4.8-1.6-4.8-4.2a5.7 5.7 0 0 1 2.3-4.5Zm34.8 2.3 8-9.4-7.3-8.3a5 5 0 0 1-1.4-3.4 4 4 0 0 1 4-4 5 5 0 0 1 4.2 2.2l5.7 7.6 5.8-7.6a5.1 5.1 0 0 1 3.8-2.3A3.9 3.9 0 0 1 227 36a4.7 4.7 0 0 1-1.2 3l-7.6 8.8 7.8 9a5 5 0 0 1 1.4 3.3 4 4 0 0 1-4 4 5 5 0 0 1-4.1-2.2l-6.3-8.3-6.3 8.3A5 5 0 0 1 203 64a3.9 3.9 0 0 1-4.1-3.8 4.4 4.4 0 0 1 1.2-3Zm52-2.3 11.5-9.4c5-4.2 7-6.4 7-9.8s-2.2-5.3-5.4-5.3c-2.6 0-4.4 1.1-6.6 3.6a4 4 0 0 1-3 1.2 4 4 0 0 1-4-4 4.5 4.5 0 0 1 1-2.8 16 16 0 0 1 13.1-6c8.4 0 14 5 14 12.5v.1c0 6.8-3.4 10.2-10.6 15.8l-6.6 5.1h14.1a3.9 3.9 0 0 1 4 3.9 3.8 3.8 0 0 1-4 3.8h-22c-2.8 0-4.8-1.6-4.8-4.2A5.6 5.6 0 0 1 252 55Zm53.5 0h-16.7a4.2 4.2 0 0 1-4.3-4.2 7.3 7.3 0 0 1 2-4.9l17.7-20.5c1.7-2 3-3 5.5-3a4.2 4.2 0 0 1 4.3 4.3v21h2.2a3.6 3.6 0 0 1 3.6 3.6 3.6 3.6 0 0 1-3.6 3.6H314v5a4.2 4.2 0 0 1-4.3 4.1 4.2 4.2 0 0 1-4.2-4.2Zm0-7.3V35l-10.8 12.7Zm20.5 9.6 7.9-9.4-7.3-8.3a5.1 5.1 0 0 1-1.4-3.4 4 4 0 0 1 4-4 5 5 0 0 1 4.2 2.2L339 42l5.9-7.6a5 5 0 0 1 3.8-2.3A3.9 3.9 0 0 1 353 36a4.7 4.7 0 0 1-1.2 3l-7.5 8.8 7.7 9a5 5 0 0 1 1.5 3.3 4 4 0 0 1-4 4 5 5 0 0 1-4.2-2.2l-6.3-8.2-6.2 8.2a5 5 0 0 1-3.9 2.3 3.9 3.9 0 0 1-4-3.9 4.4 4.4 0 0 1 1.1-3Z" fill="#fff"/>
</svg>
