<svg xmlns="http://www.w3.org/2000/svg" xmlns:xlink="http://www.w3.org/1999/xlink" xml:space="preserve" viewBox="0 0 779 482"><defs><path id="a" d="M-56-53h889v577H-56z"/></defs><clipPath id="b"><use xlink:href="#a" overflow="visible"/></clipPath><path fill="#71706f" d="M607 242h-61.3c-6.8 0-12.4-5.4-12.4-12.2 0-6.8 5.5-12.8 12.4-12.8H639v-46h-93.3c-32.5 0-59 26.5-59 59s26.5 59 59 59h60.4c6.8 0 12.4 5.4 12.4 12.2S613 313 606.2 313H476.6c-11 21-21.7 39-43.4 48H607c32-.5 58.2-27.5 58.2-59.7S639 242.5 607 242" clip-path="url(#b)"/><defs><path id="c" d="M-56-53h889v577H-56z"/></defs><clipPath id="d"><use xlink:href="#c" overflow="visible"/></clipPath><path fill="#71706f" d="M372.2 171c-51.9 0-94.2 42.5-94.2 94.8V463h47V361h47.1c51.9 0 94-43.1 94-95.4 0-52.2-42-94.6-93.9-94.6m0 142H325v-47.4c0-26.5 21.1-48 47.2-48s47.4 21.5 47.4 48-21.3 47.4-47.4 47.4" clip-path="url(#d)"/><defs><path id="e" d="M-56-53h889v577H-56z"/></defs><clipPath id="f"><use xlink:href="#e" overflow="visible"/></clipPath><path fill="#c8036f" d="M129.2 361c-44.4 0-81.8-31.7-91.9-73 0 0-2.9-13.7-2.9-22.7s2.8-22.8 2.8-22.8c10.2-41.3 47.5-72 91.9-72 52.2 0 95 42.4 95 94.6V288H85.4c8.2 16 24.7 25 43.8 25h124.6l.2-135.3c0-20.2-16.5-36.7-36.7-36.7H40.7C20.5 141 4 157 4 177.2v176.6C4 374 20.5 391 40.7 391h176.6c18.1 0 33.2-13 36.1-30H129.2z" clip-path="url(#f)"/><defs><path id="g" d="M-56-53h889v577H-56z"/></defs><clipPath id="h"><use xlink:href="#g" overflow="visible"/></clipPath><path fill="#c8036f" d="M129 215.4c-19 0-35.6 11.6-43.8 26.6h87.6c-8.2-15-24.8-26.6-43.8-26.6" clip-path="url(#h)"/><defs><path id="i" d="M-56-53h889v577H-56z"/></defs><clipPath id="j"><use xlink:href="#i" overflow="visible"/></clipPath><path fill="#c8036f" d="M209 83.6c0-43.1-35.8-78.1-80-78.1-43.5 0-78.8 33.8-80 75.9v24c0 2.8 2.3 5.6 5.2 5.6h29.4c2.9 0 5.4-2.8 5.4-5.6V83.6c0-21.5 17.9-39 40-39s40 17.5 40 39v21.9c0 2.8 2.3 5.6 5.2 5.6h29.4c2.9 0 5.3-2.8 5.3-5.6l.1-21.9z" clip-path="url(#j)"/><defs><path id="k" d="M-56-53h889v577H-56z"/></defs><clipPath id="l"><use xlink:href="#k" overflow="visible"/></clipPath><path fill="#71706f" d="m424.9 422-4.3 24.1c-2.1 12.2-10.1 17.8-20.9 17.8-9.2 0-16.3-6-14.2-17.7l4.3-24.1h6.6l-4.3 24.1c-1.3 7.5 2.1 11.8 8.5 11.8 6.6 0 12.2-3.9 13.5-11.8l4.3-24.1 6.5-.1zm-25.7-7.5c0 2 1.5 3 3.2 3 2.1 0 4.3-1.5 4.3-4.3 0-2-1.3-3-3-3-2.2 0-4.5 1.4-4.5 4.3m14.1-.1c0 2.1 1.6 3 3.3 3 1.8 0 4.3-1.5 4.3-4.2 0-1.9-1.4-3-3-3-2.1 0-4.6 1.4-4.6 4.2" clip-path="url(#l)"/><defs><path id="m" d="M-56-53h889v577H-56z"/></defs><clipPath id="n"><use xlink:href="#m" overflow="visible"/></clipPath><path fill="#71706f" d="m440.8 422-3 16.7c2.5-3.4 7.6-5.2 11.2-5.2 7.3 0 12.4 4.3 12.4 12.3 0 11.3-7.9 18.1-17.9 18.1-3.9 0-7.2-1.5-9.2-5.1l-1.1 4.3h-5.7l7.3-41h6zm-4.6 28.1c-.2 4.8 2.9 8 7.4 8 5.7 0 11.3-4.4 11.6-11.2.2-4.9-3-7.8-7.4-7.8-5.6 0-11.3 4.6-11.6 11" clip-path="url(#n)"/><defs><path id="o" d="M-56-53h889v577H-56z"/></defs><clipPath id="p"><use xlink:href="#o" overflow="visible"/></clipPath><path fill="#71706f" d="M473.4 451c-.2 4 2.9 7.3 8.2 7.3 3 0 6.9-1.2 9-3.2l3.3 3.8c-3.6 3.3-8.9 5-13.4 5-8.4 0-13.3-5-13.3-12.7 0-10.2 8-17.8 18.3-17.8 9.4 0 14.7 5.7 11.5 17.7l-23.6-.1zm18.7-5c.5-5-2.5-7-7.4-7-4.4 0-8.5 2-10.3 7h17.7z" clip-path="url(#p)"/><defs><path id="q" d="M-56-53h889v577H-56z"/></defs><clipPath id="r"><use xlink:href="#q" overflow="visible"/></clipPath><path fill="#71706f" d="m513.3 434-.3 3.9c2.8-3.7 6.3-4.5 9.4-4.5 2.8 0 5.4 1 6.7 2.5l-3.7 5.3c-1.3-1.2-2.6-1.8-4.8-1.8-4.2 0-8.3 2.5-9.3 7.9l-2.8 15.7h-6.1l5.1-29h5.8z" clip-path="url(#r)"/><defs><path id="s" d="M-56-53h889v577H-56z"/></defs><clipPath id="t"><use xlink:href="#s" overflow="visible"/></clipPath><path fill="#71706f" d="m558.5 434 3 22.9 11.1-22.9h6.8l-15.2 29H557l-2.9-19.1-4.6 9.5-5.1 9.6h-7.1l-5.2-29h6.9l3 22.9 11.2-22.9z" clip-path="url(#t)"/><defs><path id="u" d="M-56-53h889v577H-56z"/></defs><clipPath id="v"><use xlink:href="#u" overflow="visible"/></clipPath><path fill="#71706f" d="M587.3 451c-.2 4 2.9 7.3 8.2 7.3 3 0 6.9-1.2 9-3.2l3.3 3.8c-3.6 3.3-8.9 5-13.4 5-8.4 0-13.3-5-13.3-12.7 0-10.2 8-17.8 18.3-17.8 9.4 0 14.7 5.7 11.5 17.7l-23.6-.1zm18.6-5c.5-5-2.5-7-7.4-7-4.4 0-8.5 2-10.3 7h17.7z" clip-path="url(#v)"/><defs><path id="w" d="M-56-53h889v577H-56z"/></defs><clipPath id="x"><use xlink:href="#w" overflow="visible"/></clipPath><path fill="#71706f" d="m627.6 434-5.1 29h-6.1l5.1-29h6.1zm-5.4-7.9c0 2.1 1.5 3.1 3.2 3.1 2.4 0 4.6-1.5 4.6-4.4 0-2-1.5-3.1-3.1-3.1-2.2 0-4.7 1.4-4.7 4.4" clip-path="url(#x)"/><defs><path id="y" d="M-56-53h889v577H-56z"/></defs><clipPath id="z"><use xlink:href="#y" overflow="visible"/></clipPath><path fill="#71706f" d="M654.6 441.2c-1.9-2.1-4.3-2.7-7.2-2.7-4 0-6.9 1.4-6.9 3.9 0 2.1 2.3 3 5.7 3.3 5.3.5 12.1 2.2 10.7 9.8-1 5.4-6.4 8.6-14 8.6-4.7 0-9.3-1.1-12.4-5.4l4-4.3c2.2 3 6 4.3 9.5 4.3 2.9 0 6.3-1.1 6.9-3.8.5-2.6-1.8-3.6-6-4-5-.5-10.4-2.3-10.4-7.8 0-7.3 7.9-9.8 13.8-9.8 4.5 0 7.8 1 10.5 3.9l-4.2 4z" clip-path="url(#z)"/><defs><path id="A" d="M-56-53h889v577H-56z"/></defs><clipPath id="B"><use xlink:href="#A" overflow="visible"/></clipPath><path fill="#71706f" d="m673.8 434-2.8 15.6c-.9 5 1.4 8.4 6.4 8.4 4.8 0 8.9-4 9.7-8.8l2.7-15.2h6.1l-5.1 29h-5.5l.4-4.2c-3.4 3.3-6.8 4.8-10.9 4.8-7.2 0-11.4-5.1-9.9-13.9l2.8-15.6h6.1z" clip-path="url(#B)"/><defs><path id="C" d="M-56-53h889v577H-56z"/></defs><clipPath id="D"><use xlink:href="#C" overflow="visible"/></clipPath><path fill="#71706f" d="m722.7 463 2.8-15.5c.9-5-.8-8.4-6.4-8.4-4.8 0-8.9 3.9-9.8 8.7l-2.7 15.2h-6.1l5.1-29h5.6l-.4 4.2c3.4-3.1 6.9-4.7 10.6-4.7 7.1 0 11.7 4.9 10.1 13.9l-2.8 15.6h-6z" clip-path="url(#D)"/><defs><path id="E" d="M-56-53h889v577H-56z"/></defs><clipPath id="F"><use xlink:href="#E" overflow="visible"/></clipPath><path fill="#71706f" d="M743.3 467c-.4 4 2.7 5.6 7.8 5.6 4.5 0 9.3-2.5 10.5-8.9l.9-5c-2.7 3.7-7.5 5.2-11.1 5.2-7.5 0-12.7-4.4-12.7-12.5 0-11.5 8.5-18.1 18.1-18.1 4.1 0 7.7 1.9 9 5.2l1-4.6h5.9l-5.1 29.9c-1.9 11.1-10.1 14.5-17.6 14.5-9 0-14-4.3-12.7-11.3h6zm1.7-16.7c0 5 3.3 8 7.9 8 12.6 0 16-19.3 3.4-19.3-6-.1-11.3 4.4-11.3 11.3" clip-path="url(#F)"/><defs><path id="G" d="M-56-53h889v577H-56z"/></defs></svg>
