<svg xmlns="http://www.w3.org/2000/svg" width="28" height="20">
    <g fill="none" fill-rule="evenodd">
        <g fill-rule="nonzero">
            <path fill="#FF5F00" d="M10.047 2.896h7.998v13.183h-7.998z"/>
            <path d="M10.87 9.488a8.398 8.398 0 0 1 3.174-6.59 8.254 8.254 0 0 0-11.237.904c-2.939 3.212-2.939 8.163 0 11.375a8.254 8.254 0 0 0 11.237.904 8.398 8.398 0 0 1-3.173-6.593Z" fill="#EB001B"/>
            <path fill="#F79E1B" d="M26.538 14.776v-.282h.114v-.047h-.274v.047h.114v.282zm.527-.329h-.092l-.092.235-.091-.235h-.092v.329h.069v-.258l.076.211h.084l.074-.211v.258h.064zm.421-4.959c0 3.21-1.816 6.138-4.677 7.54a8.246 8.246 0 0 1-8.765-.95 8.412 8.412 0 0 0 3.174-6.59 8.412 8.412 0 0 0-3.174-6.592 8.246 8.246 0 0 1 8.765-.95c2.86 1.402 4.677 4.33 4.677 7.54v.002Z"/>
        </g>
        <path d="M.5.5h27v18H.5z"/>
    </g>
</svg>
