<svg xmlns="http://www.w3.org/2000/svg" viewBox="0 0 998.1 272.8" style="enable-background:new 0 0 998.1 272.8"
     xml:space="preserve">
  <path class="st0"
        d="M221.8 87h-68.3c0-11.2-1.3-18.7-3.9-22.6-4.1-5.7-15.3-8.5-33.6-8.5-17.8 0-29.7 1.6-35.4 4.9-5.8 3.3-8.7 10.4-8.7 21.4 0 9.9 2.6 16.5 7.7 19.6 3.7 2.2 8.5 3.5 14.6 3.9l13.8 1c29.5 2 48 3.3 55.3 4.1 23.3 2.4 40.3 8.6 50.8 18.6 8.3 7.9 13.2 18.1 14.8 30.8.9 7.6 1.4 16.2 1.4 25.7 0 22-2.1 38-6.3 48.2-7.6 18.7-24.7 30.5-51.3 35.5-11.1 2.1-28.2 3.1-51.1 3.1-38.2 0-64.9-2.3-80-6.9-18.5-5.6-30.7-17-36.5-34.1-3.5-9.4-5.1-25.2-5.1-47.4h68.3v5.7c0 11.8 3.4 19.5 10.2 22.9 4.7 2.3 10.4 3.6 17.1 3.7h25.1c12.8 0 21-.7 24.5-2 6.3-2.5 10.4-6.4 12.4-11.9 1-3.4 1.6-7.8 1.6-13.1 0-12-4.4-19.3-13.1-21.9-3.3-1-18.5-2.5-45.7-4.3-21.8-1.6-37-3.1-45.5-4.5-22.4-4.2-37.3-12.8-44.7-25.8C3.6 121.8.3 105 .3 82.5c0-17.1 1.8-30.8 5.3-41.1s9.2-18.2 17.1-23.5C34.2 9.7 49 4.8 66.9 3.4c14.9-1.3 31.5-2 49.7-2 28.7 0 49.1 1.6 61.3 4.9 29.7 8 44.6 30.4 44.6 67.1-.1 3.1-.3 7.6-.7 13.6m300.3 185.8V0h136.8c18.8 0 33.1 1.5 42.9 4.6 22.5 7 37.6 21.5 45.3 43.3 4 11.4 6 28.7 6 51.7 0 27.7-2.2 47.5-6.6 59.7-8.8 23.9-26.8 37.7-54.1 41.3-3.2.5-16.9 1-40.9 1.4l-12.2.4h-43.8v70.4h-73.4zm73.4-133.7h45.8c14.5-.5 23.3-1.6 26.5-3.4 4.3-2.4 7.3-7.2 8.7-14.3.9-4.8 1.4-11.9 1.4-21.3 0-11.5-.9-20.1-2.8-25.7-2.6-7.8-9-12.6-19-14.3-2-.3-6.7-.4-14.2-.4h-46.4v79.4zm314.3 86.5h-98.2l-13.2 47.1h-76L804.4 0h110.7l83 272.8h-74.4l-13.9-47.2zm-14.6-53.1L860.8 54.2l-33.4 118.2h67.8z"
        fill="#10298D"/>
    <path fill="#FFBE00"
          d="M420.8 38.4c30.3 0 57.3 13.9 75.1 35.8l15.8-33.9C487 16.9 453.3 2.5 416.1 2.5c-57.8 0-107.3 34.9-127.6 84.4h-30.9L239.4 126h39.7c-.3 3.6-.5 7.2-.5 10.9 0 4.5.2 8.9.7 13.3h-19.9l-18.2 39.1h48.3c20.9 48.2 69.7 82 126.7 82 28.7 0 55.3-8.6 77.4-23.3v-48c-17.8 20.2-43.7 33-72.7 33-33.8 0-63.6-17.4-80.9-43.9h101l18.2-39.1H324.9c-.7-4.7-1.1-9.5-1.1-14.4 0-3.3.2-6.6.5-9.8h146.1l18.2-39.1H337c16.8-28.8 48-48.3 83.8-48.3"/>
</svg>
