<svg width="84" height="28" viewBox="0 0 84 28" fill="none" xmlns="http://www.w3.org/2000/svg">
<path fill-rule="evenodd" clip-rule="evenodd" d="M41.5978 1.042L36.0858 27.0274H29.4188L34.9337 1.042H41.5982H41.5978ZM69.6447 17.8202L73.1546 8.06316L75.1746 17.8202H69.6447ZM77.0847 27.0274H83.25L77.8686 1.042H72.1782C70.8984 1.042 69.8187 1.79186 69.3405 2.94764L59.3374 27.0274H66.3365L67.7262 23.145H76.2787L77.0848 27.0274H77.0847ZM59.6837 18.5432C59.714 11.6857 50.279 11.307 50.3447 8.24296C50.3657 7.31089 51.2453 6.32027 53.1722 6.06693C54.1261 5.94069 56.7594 5.84321 59.7442 7.22857L60.9155 1.71918C59.3106 1.13121 57.2469 0.566841 54.6789 0.566841C48.09 0.566841 43.4517 4.09946 43.4156 9.15642C43.3709 12.899 46.7247 14.9844 49.2514 16.2291C51.8479 17.5027 52.7185 18.3195 52.7092 19.4575C52.6899 21.2022 50.6371 21.9715 48.7186 22.0013C45.3675 22.0538 43.4214 21.0878 41.8728 20.3591L40.6652 26.0531C42.2214 26.7742 45.097 27.403 48.0775 27.4335C55.0814 27.4335 59.6627 23.9467 59.6837 18.5432ZM32.0725 1.042L21.2719 27.0274H14.225L8.91011 6.28875C8.58664 5.0119 8.30769 4.54414 7.32628 4.00681C5.72372 3.12899 3.07753 2.30629 0.75 1.79616L0.907094 1.042H12.2512C13.6956 1.042 14.9965 2.01144 15.325 3.69078L18.1324 18.7277L25.07 1.04217H32.0722L32.0725 1.042Z" fill="#003EA9"/>
</svg>
