<svg xmlns="http://www.w3.org/2000/svg" xml:space="preserve" id="Layer_1" x="0" y="0" style="enable-background:new 0 0 252.7 156.7" version="1.1" viewBox="0 0 252.7 156.7"><style>.st0{fill:#004e91}</style><path d="M225.2 27.4H147l-8 9-25.8 29.1-8 9H28l7.8-9.1 3.7-4.3 7.8-9.1H11.8C5.3 52 0 57.5 0 64.1V89.7c0 6.7 5.3 12.1 11.8 12.1H148c6.5 0 15.4-4.1 19.7-9l20.6-23.4 36.9-42z" class="st0"/><path d="M240.9.1c6.5 0 11.8 5.5 11.8 12.1v25.6c0 6.7-5.3 12.1-11.8 12.1h-35.5l7.9-9 3.9-4.5 7.9-9h-78.2l-41.7 47H27.5l55.7-63L85.3 9c4.4-4.9 13.3-9 19.8-9H240.9v.1z" style="fill:#fd0"/><path d="M252.7 155.4v-3.7c0-.5-.3-.8-1-.8h-2.4c-.7 0-1.2-.1-1.3-.4-.2-.3-.2-.9-.2-1.9v-14h3.9c.3 0 .5-.1.7-.3.2-.2.3-.4.3-.7v-3.9c0-.3-.1-.5-.3-.7-.2-.2-.4-.3-.7-.3h-3.9v-5.1c0-.3-.1-.5-.2-.6-.2-.1-.4-.2-.6-.2h-.1l-5.8 1c-.3.1-.5.2-.7.3-.2.2-.3.4-.3.6v3.9h-3.9c-.3 0-.5.1-.7.3-.2.2-.3.4-.3.7v3.2c0 .3.1.5.3.6.2.2.4.3.7.4l3.9.6v14c0 1.7.2 3.1.5 4.2.4 1.1.9 1.9 1.5 2.5.7.6 1.5 1 2.5 1.2 1 .2 2.2.3 3.5.3.7 0 1.3 0 1.9-.1.5-.1 1.2-.2 1.9-.3.5 0 .8-.3.8-.8m-20.8-.5v-4.3c0-.3-.1-.5-.3-.6-.2-.1-.4-.2-.6-.2h-.1c-.9.1-1.8.2-2.6.2-.8.1-1.9.1-3.3.1-.5 0-1.1-.1-1.5-.3-.5-.2-.9-.5-1.3-.9s-.6-1-.8-1.7c-.2-.7-.3-1.6-.3-2.7v-4c0-1.1.1-2 .3-2.7.2-.7.5-1.3.8-1.7.4-.4.8-.7 1.3-.9.5-.2 1-.3 1.5-.3 1.4 0 2.5 0 3.3.1s1.7.1 2.6.2h.1c.3 0 .5-.1.6-.2.2-.1.3-.3.3-.6v-4.3c0-.4-.1-.6-.2-.7-.2-.1-.4-.3-.8-.4-.7-.2-1.5-.3-2.6-.5s-2.3-.2-3.8-.2c-3.4 0-6.1 1-8.2 3.1-2 2.1-3.1 5.1-3.1 9.1v4c0 3.9 1 7 3.1 9.1 2 2.1 4.8 3.1 8.2 3.1 1.4 0 2.7-.1 3.8-.2 1.1-.2 2-.3 2.6-.5.4-.1.6-.2.8-.4.2-.1.2-.4.2-.7m-31.3-5.1c-.6.3-1.2.5-1.9.7-.7.2-1.4.3-2.1.3-1 0-1.8-.1-2.3-.4s-.7-.9-.7-2v-.4c0-.6.1-1.1.2-1.5.1-.4.4-.8.7-1.1.3-.3.8-.5 1.3-.7.5-.1 1.2-.2 2.1-.2h2.7v5.3zm7.6-11.7c0-1.8-.3-3.3-.8-4.5-.5-1.2-1.3-2.2-2.2-3-1-.8-2.1-1.4-3.5-1.7-1.4-.4-3-.6-4.7-.6-1.6 0-3.2.1-4.7.3-1.5.2-2.7.4-3.6.7-.6.2-.9.5-.9 1.1v3.9c0 .3.1.5.2.7.2.1.4.2.6.2h.2c.4 0 .9-.1 1.4-.1.6 0 1.2-.1 1.9-.1s1.5-.1 2.3-.1h2.3c1.1 0 2 .2 2.6.6.6.4 1 1.3 1 2.7v1.7h-2.6c-4.1 0-7.2.6-9 1.9-1.9 1.3-2.8 3.4-2.8 6.2v.4c0 1.6.2 2.9.7 3.9.5 1.1 1.1 1.9 1.9 2.6.8.6 1.6 1.1 2.6 1.4 1 .3 2 .4 3.1.4 1.4 0 2.7-.2 3.7-.6 1-.4 2-.9 3-1.6v.8c0 .3.1.5.3.7.2.2.4.3.7.3h5.4c.3 0 .5-.1.7-.3.2-.2.3-.4.3-.7l-.1-17.2zm-25.7 17.3v-3.7c0-.5-.3-.8-1-.8h-2.3c-.7 0-1.2-.1-1.3-.4-.2-.3-.2-.9-.2-1.9v-14h3.9c.3 0 .5-.1.7-.3.2-.2.3-.4.3-.7v-3.9c0-.3-.1-.5-.3-.7-.2-.2-.4-.3-.7-.3h-3.9v-5.1c0-.3-.1-.5-.2-.6-.2-.1-.4-.2-.6-.2h-.1l-5.8 1c-.3.1-.5.2-.7.3-.2.2-.3.4-.3.6v3.9h-3.9c-.3 0-.5.1-.7.3-.2.2-.3.4-.3.7v3.2c0 .3.1.5.3.6.2.2.4.3.7.4l3.9.6v14c0 1.7.2 3.1.5 4.2.4 1.1.9 1.9 1.5 2.5s1.5 1 2.5 1.2c1 .2 2.2.3 3.5.3.7 0 1.3 0 1.9-.1.5-.1 1.2-.2 1.9-.3.4 0 .7-.3.7-.8m-21-.1v-16c0-1.5-.1-2.9-.4-4.3-.2-1.3-.7-2.5-1.3-3.5s-1.5-1.8-2.6-2.3c-1.1-.6-2.5-.9-4.3-.9-1.5 0-2.9.2-4.1.6-1.2.4-2.4 1-3.8 2v-1.2c0-.3-.1-.5-.3-.7-.2-.2-.4-.3-.7-.3h-5.4c-.3 0-.5.1-.7.3-.2.2-.3.4-.3.7v25.6c0 .3.1.5.3.7.2.2.4.3.7.3h5.8c.3 0 .5-.1.7-.3.2-.2.3-.4.3-.7v-18.9c.8-.4 1.6-.8 2.4-1.1.7-.3 1.5-.4 2.2-.4s1.3.1 1.8.2.8.4 1.1.7c.3.4.4.8.5 1.4.1.6.1 1.3.1 2.1v16c0 .3.1.5.3.7.2.2.4.3.7.3h5.8c.3 0 .5-.1.7-.3.4-.2.5-.5.5-.7m-36.4-11.1c0 3.9-1.4 5.9-4.3 5.9-1.4 0-2.5-.5-3.2-1.5s-1.1-2.5-1.1-4.4v-3.4c0-2 .4-3.4 1.1-4.4.7-1 1.8-1.5 3.2-1.5 2.8 0 4.3 2 4.3 5.9v3.4zm7.8-3.4c0-1.9-.3-3.7-.8-5.2s-1.3-2.8-2.3-3.9-2.3-1.9-3.8-2.5-3.2-.9-5.2-.9-3.7.3-5.2.9c-1.5.6-2.8 1.4-3.8 2.5s-1.8 2.4-2.3 3.9-.8 3.3-.8 5.2v3.4c0 1.9.3 3.7.8 5.2s1.3 2.8 2.3 3.9c1 1.1 2.3 1.9 3.8 2.5s3.2.9 5.2.9 3.7-.3 5.2-.9 2.8-1.4 3.8-2.5 1.8-2.4 2.3-3.9.8-3.3.8-5.2v-3.4zm-26.8 14.1v-4.3c0-.3-.1-.5-.3-.6s-.4-.2-.7-.2h-.1c-.9.1-1.8.2-2.6.2s-1.9.1-3.3.1c-.5 0-1.1-.1-1.5-.3-.5-.2-.9-.5-1.3-.9s-.6-1-.8-1.7c-.2-.7-.3-1.6-.3-2.7v-4c0-1.1.1-2 .3-2.7.2-.7.5-1.3.8-1.7.4-.4.8-.7 1.3-.9.5-.2 1-.3 1.5-.3 1.4 0 2.5 0 3.3.1s1.7.1 2.6.2h.1c.3 0 .5-.1.7-.2.2-.1.3-.3.3-.6v-4.3c0-.4-.1-.6-.2-.7-.2-.1-.4-.3-.8-.4-.7-.2-1.5-.3-2.6-.5s-2.3-.2-3.8-.2c-3.4 0-6.1 1-8.2 3.1-2 2.1-3.1 5.1-3.1 9.1v4c0 3.9 1 7 3.1 9.1 2 2.1 4.8 3.1 8.2 3.1 1.4 0 2.7-.1 3.8-.2 1.1-.2 1.9-.3 2.6-.5.4-.1.6-.2.8-.4.2-.1.2-.4.2-.7m-23.6.4v-16c0-1.5-.1-2.9-.4-4.3-.2-1.3-.7-2.5-1.3-3.5s-1.5-1.8-2.6-2.3c-1.1-.6-2.5-.9-4.3-.9-1.5 0-2.9.2-4.1.6-1.2.4-2.4 1-3.8 2v-1.2c0-.3-.1-.5-.3-.7-.2-.2-.4-.3-.7-.3h-5.4c-.3 0-.5.1-.7.3-.2.2-.3.4-.3.7v25.6c0 .3.1.5.3.7.2.2.4.3.7.3h5.8c.3 0 .5-.1.7-.3.2-.2.3-.4.3-.7v-18.9c.8-.4 1.6-.8 2.4-1.1.7-.3 1.5-.4 2.2-.4s1.3.1 1.8.2.8.4 1.1.7c.3.4.4.8.5 1.4.1.6.1 1.3.1 2.1v16c0 .3.1.5.3.7.2.2.4.3.7.3h5.8c.3 0 .5-.1.7-.3.3-.2.5-.5.5-.7m-37.2-5.5c-.6.3-1.2.5-1.9.7-.7.2-1.4.3-2.1.3-1 0-1.8-.1-2.3-.4s-.7-.9-.7-2v-.4c0-.6.1-1.1.2-1.5s.4-.8.7-1.1c.3-.3.8-.5 1.3-.7.5-.1 1.2-.2 2.1-.2h2.7v5.3zm7.7-11.7c0-1.8-.3-3.3-.8-4.5-.5-1.2-1.3-2.2-2.2-3-1-.8-2.1-1.4-3.5-1.7-1.4-.4-3-.6-4.7-.6-1.6 0-3.2.1-4.7.3-1.5.2-2.7.4-3.6.7-.6.2-.9.5-.9 1.1v3.9c0 .3.1.5.2.7.2.1.4.2.6.2h.2c.4 0 .9-.1 1.4-.1.6 0 1.2-.1 2-.1.7 0 1.5-.1 2.3-.1h2.3c1.1 0 2 .2 2.6.6.6.4 1 1.3 1 2.7v1.7h-2.6c-4.1 0-7.2.6-9 1.9s-2.8 3.4-2.8 6.2v.4c0 1.6.2 2.9.7 3.9.5 1.1 1.1 1.9 1.9 2.6.8.6 1.6 1.1 2.6 1.4 1 .3 2 .4 3.1.4 1.4 0 2.7-.2 3.7-.6 1-.4 2-.9 3-1.6v.8c0 .3.1.5.3.7.2.2.4.3.7.3h5.4c.3 0 .5-.1.7-.3.2-.2.3-.4.3-.7v-17.2H53zm-34.4 7.6c0 1.3-.5 2.4-1.4 3.1-.9.7-2.7 1.1-5.1 1.1h-4v-9h5.4c1.9 0 3.3.4 4 1.3s1.1 1.9 1.1 3v.5zm-.2-14.3c0 .5-.1 1-.2 1.5-.2.5-.4.9-.8 1.2-.4.3-.9.6-1.5.8-.6.2-1.4.3-2.4.3H8.1v-8.3h3.7c2.5 0 4.2.3 5.2.9 1 .6 1.5 1.6 1.5 2.9l-.1.7zm8.2 13.8c0-1.7-.4-3.1-1.2-4.3-.8-1.2-1.8-2.2-3.1-2.8 1.3-.6 2.3-1.6 3-2.8.7-1.3 1.1-2.7 1.1-4.2v-.9c0-1.9-.4-3.5-1.1-4.8-.7-1.3-1.8-2.3-3.1-3.1s-2.9-1.3-4.8-1.7c-1.9-.3-3.9-.5-6.2-.5H8.8c-.8 0-1.6.1-2.4.1-.8 0-1.5.1-2.2.2-.7.1-1.2.1-1.6.2-.9.2-1.6.4-2 .9-.4.4-.6 1.2-.6 2.3V153c0 1.1.2 1.8.6 2.3.4.4 1.1.7 2 .9.5.1 1.1.2 1.7.2.7.1 1.4.1 2.2.2.8 0 1.6.1 2.4.1h2.5c2.1 0 4.1-.2 5.9-.5 1.8-.3 3.5-.9 4.8-1.7 1.4-.8 2.4-1.9 3.3-3.3.8-1.4 1.2-3.2 1.2-5.3v-.7z" class="st0"/></svg>
