<svg xmlns="http://www.w3.org/2000/svg" viewBox="0 0 135.639 64.18"><linearGradient id="a" x1=".5" x2=".5" y1=".993" y2=".004" gradientUnits="objectBoundingBox"><stop offset="0" stop-color="#5a5a5a"/><stop offset=".146" stop-color="#484848"/><stop offset=".52" stop-color="#212121"/><stop offset=".817" stop-color="#080808"/><stop offset="1"/></linearGradient><linearGradient id="b" x1=".147" x2=".854" y1=".146" y2=".854" gradientUnits="objectBoundingBox"><stop offset="0" stop-color="#e52f08"/><stop offset="1" stop-color="#e94f96"/></linearGradient><filter id="c" width="33.857" height="50.159" x="87.251" y="10.07" filterUnits="userSpaceOnUse"><feOffset dx="2.379" dy="2.973"/><feGaussianBlur result="blur" stdDeviation=".743"/><feFlood flood-opacity=".949"/><feComposite in2="blur" operator="in"/><feComposite in="SourceGraphic"/></filter><path fill="#fff" d="M127.724 0H7.914A7.919 7.919 0 0 0 0 7.907v48.367a7.919 7.919 0 0 0 7.914 7.906h119.81a7.92 7.92 0 0 0 7.915-7.906V7.907A7.92 7.92 0 0 0 127.724 0z"/><path fill="url(#a)" d="M176.419 49.579H56.609a7.083 7.083 0 0 0-7.087 7.079v48.368a7.082 7.082 0 0 0 7.087 7.078h119.81a7.082 7.082 0 0 0 7.086-7.078V56.658a7.083 7.083 0 0 0-7.086-7.079z" transform="translate(-48.695 -48.752)"/><g transform="translate(20.254 6.714)"><g fill="#fff"><circle cx="7.088" cy="7.088" r="7.088" transform="rotate(-89.628 16.302 -1.097)"/><path d="M37.086 3.355h7.923v44.956h-7.923zM52.04 18.866h7.923v29.445H52.04zm-35.553-.294a14.968 14.968 0 0 0-7.108 1.784v-17H1.455v30.242a15.03 15.03 0 1 0 15.032-15.026zm0 22.26a7.233 7.233 0 1 1 7.233-7.234 7.231 7.231 0 0 1-7.233 7.234z"/></g><circle cx="7.088" cy="7.088" r="7.088" fill="url(#b)" transform="rotate(-89.628 16.302 -1.097)"/><path fill="#fff" d="M37.086 3.355h7.923v44.956h-7.923zM52.04 18.866h7.923v29.445H52.04zm-35.553-.294a14.968 14.968 0 0 0-7.108 1.784v-17H1.455v30.242a15.03 15.03 0 1 0 15.032-15.026zm0 22.26a7.233 7.233 0 1 1 7.233-7.234 7.231 7.231 0 0 1-7.233 7.234z"/></g><g filter="url(#c)" transform="translate(-.003 -.003)"><path fill="#fff" d="M106.284 55.03h10.206l-12.262-15.837 11.119-13.608h-9.257L95.171 39.278v-29.2h-7.925V55.03h7.925l-.006-15.714z"/></g></svg>
