<svg enable-background="new 0 0 4750 471" viewBox="0 0 4750 471" xmlns="http://www.w3.org/2000/svg" xmlns:xlink="http://www.w3.org/1999/xlink"><linearGradient id="a" gradientTransform="matrix(132.8739 0 0 -323.0232 -166659.797 250435.984)" gradientUnits="userSpaceOnUse" x1="1281.797" x2="1282.797" y1="774.559" y2="774.559"><stop offset="0" stop-color="#007b40"/><stop offset="1" stop-color="#55b330"/></linearGradient><linearGradient id="b" gradientTransform="matrix(133.4303 0 0 -323.0201 -167676.11 250433.594)" gradientUnits="userSpaceOnUse" x1="1281.836" x2="1282.831" y1="774.559" y2="774.559"><stop offset="0" stop-color="#1d2970"/><stop offset="1" stop-color="#006dba"/></linearGradient><linearGradient id="c" gradientTransform="matrix(132.9577 0 0 -323.0273 -166917.016 250439.203)" gradientUnits="userSpaceOnUse" x1="1281.803" x2="1282.802" y1="774.559" y2="774.559"><stop offset="0" stop-color="#6e2b2f"/><stop offset="1" stop-color="#e30138"/></linearGradient><path d="m40 0h670c22.1 0 40 17.9 40 40v391c0 22.1-17.9 40-40 40h-670c-22.1 0-40-17.9-40-40v-391c0-22.1 17.9-40 40-40z" fill="#0e4595"/><path d="m278.2 334.2 33.4-195.8h53.4l-33.4 195.8zm246.1-191.5c-10.6-4-27.1-8.2-47.8-8.2-52.7 0-89.9 26.6-90.2 64.6-.3 28.1 26.5 43.8 46.8 53.2 20.8 9.6 27.8 15.7 27.7 24.3-.1 13.1-16.6 19.1-31.9 19.1-21.4 0-32.7-3-50.2-10.3l-6.9-3.1-7.5 43.8c12.5 5.5 35.5 10.2 59.4 10.4 56.1 0 92.5-26.2 92.9-66.9.2-22.3-14-39.2-44.8-53.2-18.6-9.1-30.1-15.1-30-24.3 0-8.1 9.7-16.8 30.6-16.8 17.5-.3 30.1 3.5 39.9 7.5l4.8 2.3zm137.3-4.2h-41.2c-12.8 0-22.3 3.5-27.9 16.2l-79.2 179.4h56s9.2-24.1 11.2-29.4c6.1 0 60.6.1 68.3.1 1.6 6.9 6.5 29.3 6.5 29.3h49.5zm-65.4 126.4 21.3-54.7c-.3.5 4.4-11.3 7.1-18.7l3.6 16.9s10.2 46.7 12.4 56.5zm-550.3-126.4-.7 4.1c21.1 5.1 39.9 12.5 56.4 21.7l47.4 169.6 56.5-.1 84-195.4h-56.5l-52.3 133.6-5.6-27.1c-.3-.8-.5-1.7-.8-2.5l-18.2-87.4c-3.2-12.4-12.6-16.1-24.2-16.5z" fill="#fff"/><path d="m840 0h670c22.1 0 40 17.9 40 40v391c0 22.1-17.9 40-40 40h-670c-22.1 0-40-17.9-40-40v-391c0-22.1 17.9-40 40-40z"/><path d="m1021.1 421.7v-24.9c0-9.5-5.8-15.7-15.3-15.7-5 0-10.4 1.7-14.1 7-2.9-4.6-7-7-13.2-7-4.7-.2-9.2 2-12 5.8v-5h-7.9v39.8h7.9v-22.8c0-7 4.1-10.4 9.9-10.4s9.1 3.7 9.1 10.4v22.8h7.9v-22.8c0-7 4.1-10.4 9.9-10.4s9.1 3.7 9.1 10.4v22.8zm129.2-39.4h-14.5v-12h-7.8v12h-8.3v7h8.3v18.7c0 9.1 3.3 14.5 13.2 14.5 3.8-.1 7.5-1.1 10.8-2.9l-2.5-7c-2.2 1.4-4.8 2.1-7.5 2.1-4.1 0-6.2-2.5-6.2-6.6v-19h14.5zm73.8-1.2c-4.4-.1-8.5 2.1-10.8 5.8v-5h-7.9v39.8h7.9v-22.3c0-6.6 3.3-10.8 8.7-10.8 1.8.1 3.6.4 5.4.8l2.5-7.5c-1.9-.5-3.9-.7-5.8-.8zm-111.4 4.1c-4.1-2.9-9.9-4.1-16.2-4.1-9.9 0-16.2 4.6-16.2 12.4 0 6.6 4.6 10.4 13.2 11.6l4.1.4c4.6.8 7.5 2.5 7.5 4.6 0 2.9-3.3 5-9.5 5-4.7.1-9.4-1.4-13.2-4.1l-4.1 6.2c5.8 4.1 12.8 5 17 5 11.6 0 17.8-5.4 17.8-12.8 0-7-5-10.4-13.7-11.6l-4.1-.4c-3.7-.4-7-1.7-7-4.1 0-2.9 3.3-5 7.9-5 5 0 9.9 2.1 12.4 3.3zm120.1 16.6c0 12 7.9 20.7 20.7 20.7 5.8 0 9.9-1.2 14.1-4.6l-4.1-6.2c-2.9 2.4-6.6 3.7-10.3 3.7-7 0-12.4-5.4-12.4-13.2s5.4-13.2 12.4-13.2c3.8 0 7.4 1.4 10.3 3.7l4.1-6.2c-4.1-3.3-8.3-4.6-14.1-4.6-12.4-.8-20.7 7.9-20.7 19.9zm-55.5-20.7c-11.6 0-19.5 8.3-19.5 20.7s8.3 20.7 20.3 20.7c5.8.1 11.5-1.8 16.1-5.4l-4.1-5.8c-3.3 2.6-7.4 4-11.6 4.1-5.4 0-11.2-3.3-12-10.4h29.4v-3.3c0-12.3-7.5-20.6-18.6-20.6zm-.4 7.4c5.8 0 9.9 3.7 10.3 9.9h-21.5c1.2-5.7 5-9.9 11.2-9.9zm-107.3 13.3v-19.9h-7.9v5c-2.9-3.7-7-5.8-12.8-5.8-11.2 0-19.5 8.7-19.5 20.7s8.3 20.7 19.5 20.7c5.8 0 9.9-2.1 12.8-5.8v5h7.9zm-31.9 0c0-7.5 4.6-13.2 12.4-13.2 7.5 0 12 5.8 12 13.2 0 7.9-5 13.2-12 13.2-7.8.5-12.4-5.8-12.4-13.2zm306.1-20.7c-4.4-.1-8.5 2.1-10.8 5.8v-5h-7.9v39.8h7.9v-22.3c0-6.6 3.3-10.8 8.7-10.8 1.8.1 3.6.4 5.4.8l2.5-7.5c-1.9-.5-3.9-.7-5.8-.8zm-30.7 20.7v-19.9h-7.9v5c-2.9-3.7-7-5.8-12.8-5.8-11.2 0-19.5 8.7-19.5 20.7s8.3 20.7 19.5 20.7c5.8 0 9.9-2.1 12.8-5.8v5h7.9zm-31.9 0c0-7.5 4.6-13.2 12.4-13.2 7.5 0 12 5.8 12 13.2 0 7.9-5 13.2-12 13.2-7.8.5-12.4-5.8-12.4-13.2zm111.9 0v-35.6h-7.9v20.7c-2.9-3.7-7-5.8-12.8-5.8-11.2 0-19.5 8.7-19.5 20.7s8.3 20.7 19.5 20.7c5.8 0 9.9-2.1 12.8-5.8v5h7.9zm-31.9 0c0-7.5 4.6-13.2 12.4-13.2 7.5 0 12 5.8 12 13.2 0 7.9-5 13.2-12 13.2-7.9.5-12.4-5.7-12.4-13.2z" fill="#fff"/><path d="m1103.6 80.4h143.7v234.4h-143.7z" fill="#ff5f00"/><path d="m1118.1 197.6c0-45.7 20.9-88.9 56.7-117.2-61.1-48.1-148.9-41.1-201.7 16s-52.8 145.2 0 202.3 140.6 64.1 201.7 16c-35.8-28.2-56.7-71.4-56.7-117.1z" fill="#eb001b"/><path d="m1416.3 197.6c0 57-32.5 109.1-83.8 134.1s-112.3 18.4-157.2-16.8c64.7-51.2 75.7-145.2 24.5-209.9-7.2-9.1-15.4-17.3-24.5-24.5 44.8-35.3 105.9-41.8 157.2-16.8 51.3 24.8 83.8 76.9 83.8 133.9z" fill="#f79e1b"/><path d="m1652.9 0c-29.2 0-52.9 23.2-52.9 51.7v367.6c0 28.6 23.7 51.7 52.9 51.7h644.2c29.2 0 52.9-23.2 52.9-51.7v-367.6c0-28.6-23.7-51.7-52.9-51.7z" fill="#4d4d4d"/><path d="m1914.6 152.2c8.5 0 15.6 1.7 24.3 5.9v22.1c-8.2-7.6-15.3-10.8-24.8-10.8-18.5 0-33.1 14.6-33.1 33.1 0 19.5 14.1 33.2 34 33.2 9 0 15.9-3 23.8-10.5v22.1c-9 4-16.3 5.6-24.8 5.6-30.1 0-53.4-21.9-53.4-50.2.1-28.1 24-50.5 54-50.5zm-93.4.6c11.1 0 21.3 3.6 29.8 10.7l-10.3 12.9c-5.1-5.5-10-7.8-15.9-7.8-8.5 0-14.7 4.6-14.7 10.7 0 5.2 3.5 7.9 15.3 12.1 22.5 7.8 29.1 14.7 29.1 30 0 18.6-14.4 31.6-34.9 31.6-15 0-26-5.6-35.1-18.3l12.8-11.7c4.5 8.4 12.1 12.8 21.6 12.8 8.8 0 15.3-5.8 15.3-13.6 0-4-2-7.5-5.9-10-2-1.2-5.9-2.9-13.7-5.5-18.5-6.3-24.9-13.1-24.9-26.4-.1-15.7 13.6-27.5 31.5-27.5zm225.7 1.7h21.6l27 64.6 27.3-64.6h21.4l-43.7 98.7h-10.6zm-382.1.1h29c32 0 54.4 19.8 54.4 48.2 0 14.2-6.8 27.9-18.4 36.9-9.7 7.7-20.8 11.1-36.1 11.1h-28.8zm92.5 0h19.8v96.2h-19.8zm395.9 0h56v16.3h-36.3v21.4h34.9v16.3h-34.9v26h36.3v16.3h-56zm69.1 0h29.3c22.8 0 35.8 10.4 35.8 28.4 0 14.7-8.2 24.4-23.1 27.3l31.9 40.5h-24.3l-27.3-38.7h-2.6v38.7h-19.7zm19.7 15.2v29.1h5.8c12.6 0 19.3-5.2 19.3-14.9 0-9.4-6.7-14.3-19-14.3zm-557.4 1.1v63.6h5.3c12.8 0 20.8-2.3 27-7.6 6.8-5.8 10.9-15 10.9-24.2s-4.1-18.2-10.9-24c-6.5-5.6-14.3-7.8-27-7.8z" fill="#fff"/><path d="m1999.2 151.6c29.8 0 53.9 22.2 53.9 49.6s-24.1 49.6-53.9 49.6-53.9-22.2-53.9-49.6c0-27.5 24.1-49.6 53.9-49.6zm350.8 119.5c-25 17.2-212.6 140.4-537.3 199.9h484.4c29.2 0 52.9-23.2 52.9-51.7z" fill="#f47216"/><path d="m2440 0h670c22.1 0 40 17.9 40 40v391c0 22.1-17.9 40-40 40h-670c-22.1 0-40-17.9-40-40v-391c0-22.1 17.9-40 40-40z" fill="#0079be"/><path d="m2984.9 237.9c0-99.4-83-168.1-173.9-168.1h-78.2c-92 0-167.7 68.7-167.7 168.1 0 90.9 75.7 165.6 167.7 165.2h78.2c91 .5 173.9-74.2 173.9-165.2z" fill="#fff"/><path d="m2733.3 83.9c-84.1 0-152.2 68.3-152.2 152.6s68.1 152.5 152.2 152.6c84.1 0 152.2-68.3 152.2-152.6s-68.1-152.5-152.2-152.6z" fill="#0079be"/><path d="m2637.1 236.1c.1-41.2 25.7-76.3 61.9-90.2v180.5c-36.2-14-61.9-49.1-61.9-90.3zm131 90.3v-180.6c36.2 13.9 61.9 49.1 62 90.3-.1 41.2-25.8 76.3-62 90.3z" fill="#fff"/><path d="m3240 0h670c22.1 0 40 17.9 40 40v391c0 22.1-17.9 40-40 40h-670c-22.1 0-40-17.9-40-40v-391c0-22.1 17.9-40 40-40z" fill="#0e4c96"/><path d="m3817.2 346.8c0 41.6-33.7 75.4-75.4 75.4h-409.1v-298c0-41.6 33.7-75.4 75.4-75.4h409.1z" fill="#fff"/><path d="m3683.9 242c11.7.3 23.4-.5 35.1.4 11.8 2.2 14.6 20 4.2 25.9-7.1 3.9-15.6 1.4-23.4 2.1h-15.9zm41.8-32.1c2.6 9.2-6.2 17.4-15.1 16.1h-26.8c.2-8.6-.4-18 .3-26.2 10.7.3 21.5-.6 32.2.5 4.6 1.2 8.5 4.9 9.4 9.6zm64.4-135.9c.5 17.5.1 35.9.2 53.8 0 72.6.1 145.2-.1 217.8-.5 27.2-24.6 50.8-51.6 51.4-27 .1-54.1 0-81.1 0v-109.7c29.5-.2 59 .3 88.4-.2 13.7-.9 28.6-9.9 29.3-24.9 1.6-15.1-12.6-25.6-26.2-27.2-5.2-.1-5-1.5 0-2.1 12.9-2.8 23-16.1 19.2-29.5-3.2-14.1-18.8-19.5-31.7-19.5-26.4-.2-52.7 0-79.1-.1.2-20.5-.4-41 .3-61.5 2.1-26.7 26.8-48.7 53.4-48.3h79z" fill="url(#a)"/><path d="m3359.7 125c.7-27.2 24.9-50.6 51.9-51 26.9-.1 53.9 0 80.8 0-.1 90.9.1 181.8-.1 272.7-1 26.8-25 49.8-51.7 50.3-27 .1-54 0-81 0v-113.4c26.2 6.2 53.7 8.8 80.5 4.7 16-2.6 33.5-10.4 38.9-27 4-14.2 1.7-29.1 2.3-43.7v-33.8h-46.3c-.2 22.4.4 44.8-.3 67.1-1.2 13.7-14.8 22.5-27.8 22-16.1.2-47.9-11.6-47.9-11.6 0-42 .5-94.5.7-136.3z" fill="url(#b)"/><path d="m3509.7 197.4c-2.4.5-.5-8.3-1.1-11.6.2-21.1-.3-42.3.3-63.5 2.1-26.8 27-48.9 53.7-48.3h78.8c-.1 90.9.1 181.8-.1 272.7-1 26.8-25 49.8-51.7 50.3-27 .1-54 0-81 0v-124.3c18.4 15.1 43.5 17.5 66.5 17.5 17.3 0 34.5-2.7 51.4-6.7v-22.8c-19 9.4-41.2 15.4-62.2 10-14.7-3.6-25.3-17.8-25.1-32.9-1.7-15.7 7.5-32.3 23-37 19.2-6 40.1-1.4 58.1 6.4 3.9 2 7.8 4.5 6.2-1.9v-17.9c-30.1-7.2-62.1-9.8-92.3-2-8.8 2.5-17.4 6.2-24.5 12z" fill="url(#c)"/><path d="m4040 0h670c22.1 0 40 17.9 40 40v391c0 22.1-17.9 40-40 40h-670c-22.1 0-40-17.9-40-40v-391c0-22.1 17.9-40 40-40z" fill="#fff"/><path d="m4201.8 55h142.4c19.9 0 32.3 16.4 27.6 36.5l-66.3 287.5c-4.7 20.1-24.6 36.5-44.5 36.5h-142.4c-19.9 0-32.3-16.4-27.6-36.5l66.3-287.5c4.7-20.2 24.5-36.5 44.4-36.5z" fill="#d10429"/><path d="m4331.8 55h163.8c19.9 0 10.9 16.4 6.2 36.5l-66.3 287.5c-4.7 20.1-3.2 36.5-23.1 36.5h-163.8c-20 0-32.3-16.4-27.5-36.5l66.3-287.5c4.7-20.2 24.5-36.5 44.5-36.5z" fill="#022e64"/><path d="m4489.8 55h142.4c19.9 0 32.3 16.4 27.6 36.5l-66.3 287.5c-4.7 20.1-24.6 36.5-44.5 36.5h-142.4c-20 0-32.3-16.4-27.6-36.5l66.3-287.5c4.7-20.2 24.5-36.5 44.4-36.5z" fill="#076f74"/><g fill="#fefefe"><path d="m4465.9 326h13.5l3.8-13.1h-13.4zm10.8-35.9-4.7 15.5s5.1-2.6 7.9-3.4c2.8-.6 6.9-1.1 6.9-1.1l3.2-10.8h-13.5zm6.7-22.2-4.5 14.8s5-2.3 7.8-3 6.9-.9 6.9-.9l3.2-10.8h-13.3zm29.7 0-17.4 58h4.7l-3.6 12h-4.7l-1.1 3.7h-16.6l1.1-3.7h-33.5l3.3-11.1h3.4l17.6-58.9 3.5-11.9h16.9l-1.8 6s4.5-3.2 8.8-4.4c4.2-1.1 28.7-1.6 28.7-1.6l-3.6 11.8h-5.8z"/><path d="m4520 256h18l.2 6.8c-.1 1.1.8 1.7 3 1.7h3.6l-3.3 11.2h-9.7c-8.4.6-11.6-3-11.4-7.1l-.3-12.4zm2.2 53.2h-17.2l2.9-9.9h19.7l2.8-9.1h-19.4l3.3-11.2h53.8l-3.3 11.2h-18.1l-2.8 9.1h18.1l-3 9.9h-19.6l-3.5 4.2h8l2 12.5c.2 1.3.2 2.1.6 2.6.4.4 2.8.6 4.1.6h2.4l-3.7 12.2h-6.1c-.9 0-2.4-.1-4.3-.1-1.9-.2-3.1-1.3-4.3-1.9-1.1-.5-2.8-1.9-3.2-4.3l-1.9-12.5-8.9 12.3c-2.8 3.9-6.6 6.9-13.1 6.9h-12.5l3.3-10.9h4.8c1.3 0 2.6-.5 3.5-1 .9-.4 1.8-.8 2.6-2.2zm-187.9-27.2h45.4l-3.3 11h-18.1l-2.8 9.3h18.6l-3.4 11.3h-18.5l-4.6 15.2c-.5 1.7 4.4 1.9 6.2 1.9l9.3-1.3-3.7 12.5h-20.9c-1.7 0-2.9-.2-4.8-.6-1.8-.4-2.6-1.3-3.3-2.4-.7-1.3-2-2.2-1.1-4.9l6-20.1h-10.3l3.4-11.5h10.3l2.8-9.3h-10.3l3.3-11zm31.4-19.8h18.6l-3.4 11.4h-25.5l-2.8 2.4c-1.2 1.1-1.6.7-3.1 1.6-1.4.7-4.5 2.2-8.4 2.2h-8.2l3.3-11h2.5c2.1 0 3.5-.2 4.2-.6.8-.5 1.8-1.7 2.7-3.6l4.7-8.6h18.5l-3.2 6.3v-.1zm35.1 18.8s5.1-4.7 13.8-6.2c2-.4 14.4-.2 14.4-.2l1.9-6.3h-26.2l-3.8 12.8zm24.6 4.8h-26l-1.6 5.3h22.6c2.7-.3 3.2.1 3.4-.1l1.7-5.2zm-33.7-29.7h15.8l-2.3 8s5-4.1 8.5-5.5c3.5-1.3 11.4-2.5 11.4-2.5l25.7-.1-8.8 29.5c-1.4 5-3.2 8.3-4.2 9.8-.9 1.5-2.1 2.8-4.3 4.1-2.2 1.1-4.1 1.9-6 2-1.7.1-4.3.2-7.9.2h-24.7l-6.9 23.3c-.6 2.3-.9 3.4-.5 4.1.3.5 1.2 1.1 2.4 1.1l10.9-1-3.7 12.7h-12.2c-3.9 0-6.7-.1-8.7-.2-1.9-.2-3.8 0-5.2-1-1.1-1-2.9-2.4-2.8-3.8.1-1.3.6-3.3 1.5-6.3z"/><path d="m4437.8 303-1.4 7.1c-.6 2.2-1.1 3.9-2.8 5.3-1.8 1.5-3.7 3-8.5 3l-8.8.4-.1 7.9c-.1 2.2.5 2 .8 2.4.4.4.7.5 1.1.7l2.8-.2 8.4-.4-3.5 11.7h-9.6c-6.7 0-11.8-.2-13.4-1.5-1.7-1-1.9-2.3-1.9-4.6l.6-31.1h15.4l-.2 6.4h3.7c1.2 0 2.2-.1 2.7-.4s.8-.8 1-1.6l1.6-5h12.1zm-219.3-156c-.5 2.5-10.5 48.6-10.5 48.6-2.2 9.3-3.7 16-8.9 20.3-3 2.5-6.5 3.7-10.6 3.7-6.5 0-10.2-3.2-10.9-9.4l-.1-2.1s2-12.4 2-12.5c0 0 10.3-42 12.2-47.5.1-.3.1-.5.1-.6-20.2.2-23.8 0-24-.3-.1.4-.6 3-.6 3l-10.6 47.3-.9 4-1.8 13.2c0 3.9.7 7.1 2.3 9.7 4.9 8.6 18.6 9.8 26.4 9.8 10 0 19.5-2.2 25.8-6.1 11.1-6.6 14-16.9 16.5-26l1.2-4.7s10.7-43.6 12.5-49.2c.1-.3.1-.5.2-.6-14.7.1-18.9 0-20.4-.3v-.3zm59 86.6c-7.1-.1-9.7-.1-18.1.3l-.3-.6c.7-3.2 1.6-6.4 2.2-9.6l1-4.4c1.6-6.8 3-14.8 3.2-17.2.2-1.5.6-5.1-3.5-5.1-1.8 0-3.5.8-5.4 1.7-1 3.7-3 13.9-4 18.5-2.1 9.8-2.2 11-3.1 15.8l-.6.6c-7.3-.1-9.9-.1-18.4.3l-.4-.7c1.4-5.9 2.8-11.7 4.1-17.6 3.5-15.8 4.4-21.8 5.4-29.9l.7-.4c8.3-1.1 10.2-1.5 19.2-3.2l.7.8-1.3 5c1.6-.9 3-1.9 4.6-2.6 4.2-2.1 8.9-2.7 11.5-2.7 3.9 0 8.3 1.1 10 5.7 1.7 4.1.6 9.1-1.7 19l-1.1 5c-2.3 11.1-2.7 13.1-3.9 20.6l-.8.6zm29.1 0c-4.3 0-7.1-.1-9.8 0-2.7 0-5.3.2-9.3.3l-.2-.3-.2-.4c1.1-4.2 1.7-5.6 2.3-7.1.5-1.5 1-2.9 2.1-7.2 1.2-5.5 2.1-9.4 2.6-12.9.6-3.2.9-6.1 1.3-9.3l.3-.2.3-.3c4.3-.6 7-1 9.8-1.5s5.7-.9 10.1-1.8l.2.4.1.4-2.5 10.3c-.8 3.4-1.7 6.9-2.4 10.3-1.6 7.3-2.3 10-2.6 12-.4 1.9-.5 2.8-1.1 6.6l-.4.3-.4.3zm45.9-25.6c-.3 1.9-2 8.9-4.1 11.8-1.6 2.2-3.3 3.6-5.4 3.6-.6 0-4.1 0-4.2-5.3 0-2.6.5-5.3 1.1-8.3 1.9-8.5 4.1-15.5 9.8-15.5 4.5 0 4.8 5.2 2.8 13.7zm18.7.8c2.5-11.1.5-16.3-1.9-19.4-3.7-4.8-10.3-6.4-17.2-6.4-4.1 0-13.9.4-21.5 7.5-5.5 5.1-8.1 12.1-9.5 18.8-1.6 6.8-3.3 19 7.9 23.6 3.4 1.5 8.4 1.9 11.6 1.9 8.2 0 16.6-2.3 22.9-9 4.9-5.4 7-13.6 7.9-17zm174.5 26.1c-8.7-.1-11.2-.1-19.1.3l-.5-.6c2.2-8.3 4.3-16.6 6.3-25 2.5-10.9 3.1-15.5 3.9-21.8l.6-.5c8.6-1.3 11-1.6 20-3.2l.2.7c-1.7 6.9-3.2 13.7-4.9 20.5-3.3 14.3-4.5 21.6-5.7 29.2l-.8.6z"/><path d="m4533.2 209.4c-.4 1.8-2.1 8.9-4.2 11.8-1.4 2.1-5 3.4-6.9 3.4-.6 0-4 0-4.2-5.2 0-2.6.5-5.3 1.1-8.3 1.9-8.3 4.1-15.3 9.8-15.3 4.5 0 6.4 5.1 4.5 13.6zm17 .8c2.5-11.1-7.7-.9-9.2-4.6-2.5-5.7-.9-17.2-10.9-21.1-3.8-1.6-12.8.4-20.5 7.5-5.4 5-8.1 12-9.5 18.7-1.6 6.7-3.3 19 7.8 23.3 3.5 1.6 6.7 2 9.9 1.8 11.2-.6 19.7-17.7 26-24.3 4.9-5.4 5.7 1.9 6.4-1.3zm-129.9 23.4c-7.1-.1-9.6-.1-18 .3l-.3-.6c.7-3.2 1.6-6.4 2.3-9.6l.9-4.4c1.6-6.8 3.1-14.8 3.2-17.2.2-1.5.6-5.1-3.4-5.1-1.8 0-3.6.8-5.4 1.7-.9 3.7-3 13.9-4 18.5-2 9.8-2.2 11-3.1 15.8l-.6.6c-7.3-.1-9.9-.1-18.4.3l-.4-.7c1.4-5.9 2.8-11.7 4.1-17.6 3.5-15.8 4.3-21.8 5.4-29.9l.6-.4c8.3-1.1 10.3-1.5 19.2-3.2l.7.8-1.2 5c1.4-.9 3-1.9 4.5-2.6 4.2-2.1 8.9-2.7 11.5-2.7 3.9 0 8.2 1.1 10 5.7 1.7 4.1.5 9.1-1.8 19l-1.1 5c-2.4 11.1-2.7 13.1-3.9 20.6l-.8.6zm62-86.5-6 .1c-15.5.2-21.7.1-24.2-.2-.2 1.1-.6 3.1-.6 3.1s-5.6 25.9-5.6 26c0 0-13.2 55.2-13.9 57.8 13.6-.2 19-.2 21.4.1.5-2.6 3.6-18 3.7-18 0 0 2.7-11.3 2.8-11.7 0 0 .8-1.1 1.7-1.7h1.2c11.7 0 24.8 0 35.2-7.6 7-5.2 11.8-13.1 14-22.5.5-2.3.9-5 .9-7.8 0-3.7-.7-7.2-2.8-10-5.2-7.4-15.7-7.5-27.8-7.6zm7.8 27.1c-1.2 5.7-5 10.7-9.7 13-3.9 2-8.7 2.2-13.7 2.2h-3.2l.2-1.3s5.9-25.9 5.9-25.8l.2-1.4.1-1 2.4.2s12.2 1 12.4 1c4.7 1.9 6.8 6.7 5.4 13.1zm127.2 8.6-.7-.8c-8.8 1.8-10.5 2.1-18.5 3.2l-.6.6c0 .1-.1.2-.1.4v-.1c-6 14.1-5.9 11.1-10.8 22.2 0-.5 0-.8-.1-1.4l-1.2-24-.7-.8c-9.3 1.8-9.5 2.1-18 3.2l-.6.6c-.1.3-.1.6-.1.9l.1.1c1 5.5.8 4.3 1.9 13 .5 4.3 1.1 8.6 1.7 12.7.8 7.1 1.3 10.6 2.4 21.3-5.8 9.6-7.1 13.3-12.7 21.7l.3.8c8.4-.3 10.2-.3 16.5-.3l1.3-1.6c4.7-10.1 40.3-71.8 40.3-71.8zm-302.8 7c4.8-3.3 5.4-7.9 1.3-10.3-4-2.4-11.2-1.7-15.9 1.7-4.8 3.2-5.3 7.8-1.2 10.3 3.9 2.2 11.1 1.6 15.8-1.7z"/><path d="m4575.7 256.1-6.9 12c-2.2 4.1-6.3 7.2-12.7 7.2l-11.1-.2 3.2-10.9h2.2c1.1 0 2-.1 2.6-.4.6-.2.9-.6 1.4-1.3l4.1-6.6h17.3z"/></g></svg>