<svg xmlns="http://www.w3.org/2000/svg" viewBox="0 0 274.8 118.2" height="35"><g data-name="Capa 2"><g data-name="Capa 1"><path d="M0 21.2A21.23 21.23 0 0 1 21.3 0h232.2a21.23 21.23 0 0 1 21.3 21.2V97a21.23 21.23 0 0 1-21.3 21.2H21.3A21.23 21.23 0 0 1 0 97V21.2Z" data-name="92653320" style="fill-rule:evenodd;fill:#000268"/><path d="M8.7 21.9v74.3A13.36 13.36 0 0 0 22 109.5h121.7V8.6H22A13.36 13.36 0 0 0 8.7 21.9Zm166.4 36.8c0 4.7-2.3 8-6.2 8-3.4 0-6.3-3.3-6.3-7.6s2.5-7.8 6.3-7.8c4 0 6.2 3.5 6.2 7.4Zm-22.7 27.1h10.3V69.7h.1c1.9 3.5 5.8 4.8 9.4 4.8 8.8 0 13.6-7.3 13.6-16.1 0-7.2-4.5-15-12.7-15-4.7 0-9 1.9-11.1 6h-.1V44h-9.5Zm47.4-21.3c0-2.8 2.7-3.9 6.2-3.9 1.5 0 3 .1 4.3.2 0 3.5-2.5 7-6.3 7-2.4-.1-4.2-1.3-4.2-3.3Zm20.7 9.4a33.12 33.12 0 0 1-.6-7V55.8c0-9.1-6.6-12.3-14.1-12.3a30.72 30.72 0 0 0-11.9 2.1l.2 7a19.27 19.27 0 0 1 9.5-2.2c3.7 0 6.7 1.1 6.8 5.1a33.18 33.18 0 0 0-4.8-.4c-5.5 0-15.3 1.1-15.3 10.2 0 6.4 5.2 9.4 11.1 9.4 4.2 0 7.1-1.6 9.4-5.4h.1c0 1.5.2 3.1.2 4.7h9.4Zm4.6 11.9a27.3 27.3 0 0 0 6.4.7c9.4 0 11.6-7.2 14.5-14.7l10.9-27.7h-10.3l-6.1 19.4h-.1L234 44.1h-11.1l12 30.4a5.22 5.22 0 0 1-5.2 4.1 14.53 14.53 0 0 1-4.1-.6Z" data-name="92186184" style="fill:#fff;fill-rule:evenodd"/><path d="M33.8 58.8c0-4.1 2-7.4 5.8-7.4 4.6 0 6.6 3.7 6.6 7 0 4.6-2.9 7.6-6.6 7.6-3.1 0-5.8-2.6-5.8-7.2Zm22.3-14.6h-9.3v5.4h-.1a11.49 11.49 0 0 0-10.1-6c-9.2 0-13.4 6.6-13.4 15.5S28.3 74 36.4 74a11.64 11.64 0 0 0 10-5.1h.1v1.6c0 5.8-3.2 8.6-9.1 8.6a19.5 19.5 0 0 1-10-2.5l-.5 8.1a33.1 33.1 0 0 0 11.3 1.9c12 0 17.9-3.9 17.9-16.1V44.2Zm17.3-12.4H63.1v7.5h10.3ZM63.2 73.9h10.3V44.2H63.2ZM102 43.8a19 19 0 0 0-3.5-.3c-4.4 0-7 2.4-8.8 6.2h-.1v-5.5h-9.4v29.7h10.3V61.3c0-5.8 2.7-9.3 7.5-9.3a13.82 13.82 0 0 1 3.5.3Zm17.7 23.6c-4.7 0-6.7-3.9-6.7-8.3s1.9-8.4 6.7-8.4 6.7 3.9 6.7 8.4c0 4.3-2 8.3-6.7 8.3Zm0 7.1c9.8 0 17.3-5.7 17.3-15.5s-7.5-15.6-17.3-15.6-17.3 5.7-17.3 15.6 7.5 15.5 17.3 15.5Z" data-name="47303032" style="fill:#ff0007;fill-rule:evenodd"/></g></g></svg>
