<svg xmlns="http://www.w3.org/2000/svg" data-name="Layer 1" viewBox="0 0 238.63 53.26" height="25">
    <path d="M42 0H30.25a30 30 0 0 1-12.14 24.23l-4.65 3.48 18 24.57h14.83L29.71 29.67A41.56 41.56 0 0 0 42 0ZM0 52.28h12.03V0H0v52.28zm49.79-.02h11.33V.01H49.79v52.25zm110.7-37.11c-4.32 0-8.41 1.34-11.14 5v-4.03h-10.78v36.14h10.91v-19c0-5.5 3.68-8.19 8.12-8.19 4.76 0 7.49 2.84 7.49 8.11v19.08h10.81v-23c0-8.41-6.69-14.13-15.41-14.13ZM85.51 43.49a9.56 9.56 0 0 1-9.8-9.3 9.82 9.82 0 0 1 19.61 0 9.56 9.56 0 0 1-9.81 9.3Zm9.84-27.37v2.31a19.07 19.07 0 1 0-10.72 34.83A18.89 18.89 0 0 0 95.35 50v2.31h10.83V16.12Zm27.57 4.71v-4.71h-11.08v36.14h11.1V35.39c0-5.7 6.17-8.76 10.46-8.76h.12V16.12c-4.39 0-8.43 1.88-10.6 4.71Zm76.76 22.66a9.56 9.56 0 0 1-9.8-9.3 9.82 9.82 0 0 1 19.61 0 9.56 9.56 0 0 1-9.81 9.3Zm9.85-27.37v2.31a19.07 19.07 0 1 0 0 31.52v2.31h10.82V16.12Zm22.31 23.32a6.8 6.8 0 1 0 6.79 6.8 6.79 6.79 0 0 0-6.79-6.8Z"/>
</svg>
