<svg xmlns="http://www.w3.org/2000/svg" viewBox="0 0 157.2 146.6" style="enable-background:new 0 0 157.2 146.6" xml:space="preserve">
  <path d="M-17.4 94.7h63.1c14.4 0 14.5-15.3 13.1-22.9-.8-5.1-9.4-5-10.4 0v5.9c0 2.7-2.2 4.9-4.9 4.9H-77.4c-2.7 0-4.9-2.2-4.9-4.9v-5.9c-.9-5-9.6-5.1-10.4 0-1.5 7.6-1.3 22.9 13.1 22.9h62.2zM-62-51.9h97.2c6.8 0 12.4 5.9 12.4 13.1v6.3c0 8.9-12 8.8-12 .1v-3.4c0-2.2-1.8-4-4-4h-97.4c-2.2 0-4 1.8-4 4v3.4c0 8.8-11.5 8.8-11.5.2v-6.5c0-7.2 5.6-13.1 12.4-13.1.1-.1 6.9-.1 6.9-.1z" style="fill-rule:evenodd;clip-rule:evenodd;fill:#2a6bae" transform="translate(95.748 51.872)"/>
  <path d="M-4.9-39.2C1.9-36 6.5-29.5 6.5-22 6.5-11.4-2.7-2.7-14-2.7h-31.7c-3 0-5.4-2.3-5.4-5V-68c0-2.9 2.4-5.3 5.3-5.3h26.4C-8.3-73.3.8-64.2.8-53.1c0 5.4-2.2 10.3-5.7 13.9m-23.6-4.9h10.1v-.1c4.6-.7 8.1-4.7 8.1-9.4 0-5.3-4.3-9.6-9.6-9.6h-20.2v50h25.7c5.4 0 9.9-4.4 9.9-9.9S-9-33-14.5-33h-14.1c-3.1 0-5.6-2.5-5.6-5.5.2-3.1 2.7-5.6 5.7-5.6" style="fill-rule:evenodd;clip-rule:evenodd;fill:#424041" transform="translate(145.836 111.368)"/>
  <path d="M-15.1 15.6c.4 3.5-2.2 6.6-5.6 7-3.5.4-6.6-2.2-7-5.6l-5.2-47.9-18.4 46.8-.1.1v.5c-.3.6-.8 1.2-1.3 1.7l-.1.1c-.3.3-.7.6-1.1.8l-.1.1-.1.1h-1c-.6.2-1.2.3-1.9.4h-.6c-.7 0-1.4-.2-2.1-.4h-.6l-.1-.1-.1-.1h-.1c-.3-.2-.7-.4-1-.7l-.2-.2c-.1 0-.1-.1-.2-.2l-.2-.2-.2-.2c-.3-.3-.5-.6-.7-1v-.1l-.1-.1-.1-.1v-.6l-18.5-46.9-5.1 48.2c-.4 3.5-3.5 6-7 5.6-3.5-.4-6-3.5-5.6-7l6.1-56.5c.1-.7.2-1.3.4-2 .2-.6.5-1.2.8-1.8 1.6-2.9 4.5-5 7.9-5.5h.3c.5-.1 1.1-.1 1.6 0 .7 0 1.3.1 1.9.3 3.3.8 6.1 3 7.4 6.4l15.7 39.9 15.7-39.9c1.3-3.3 4.1-5.6 7.4-6.4.6-.1 1.2-.2 1.9-.3h1.9c3.4.5 6.3 2.5 7.9 5.5.3.6.6 1.2.8 1.8.2.6.3 1.3.4 2l6.3 56.5z" style="fill:#424041" transform="translate(104.85 87.015)"/>
</svg>
