<svg xmlns="http://www.w3.org/2000/svg" xml:space="preserve" id="Layer_1" x="0" y="0" style="enable-background:new 0 0 792.4 143.8" version="1.1" viewBox="0 0 792.4 143.8"><style>.st0{fill:#ee7f00}</style><path d="M612.2 46.3c-4.1 11.1-11.4 17.9-25.3 17.9h-7.3l12.3-33.5h7c12.8 0 17.6 3.8 13.3 15.6m36.9-30.6c-6.3-9.1-19-13.6-38.9-13.6H564l-50 138.6h42.4l18.2-48.8c.9 2 11.6 48.8 11.6 48.8h44.6s-8.1-34.4-14.1-48.3c-1.5-3.6-3.1-7.6-5.3-10.9 12.6-4.7 30.9-14.9 38.4-35.5 4.7-12.6 4.5-22.8-.7-30.3M222.7 2H144c-12.4 0-24.4 0-35.2 5.5C98 13 88.5 24.1 81.2 46.3c-1.6 4.8-2.4 8.9-2.5 12.4-.1 3.6.5 6.6 1.8 9.3 1.7 3.2 4.3 6.2 7.7 8.8 3.3 2.5 7.4 4.6 11.7 6 .2 0 2.4.7 5.2 1.5 2.7.8 5.3 1.6 8 2.4 1.2.4 2.5.8 3.7 1.6 1.2.7 2.2 1.7 2.9 3 .4.9.7 1.9.7 2.9s-.1 2.1-.5 3.3c-1 3-2.5 4.9-5.4 6.1-2.9 1.2-7.2 1.6-13.7 1.6H19.7L6.9 140.5h86.7c8.1 0 23.1 0 37.4-6.1 14.3-6.1 28.1-18.4 33.9-43 2.2-9.2 1.5-16.8-2.1-22.7-3.6-5.9-10.1-10.2-19.6-12.9 0 0-2.1-.6-4.6-1.3-2.5-.7-5.4-1.5-6.8-2-2.4-.7-4.3-2.1-5.4-3.9-1.1-1.8-1.4-4-.8-6.2.6-2.3 2.2-4.2 4.5-5.4 2.3-1.3 5.3-2 8.8-2h50.4c.4-.5.7-1.1 1-1.6 9.1-13.3 20.2-23.9 32.4-31.4" class="st0"/><path d="M259.7 70.6c-11.8 32.5-20.3 40.7-33.1 40.7-12.5 0-16.9-8-5.2-40.4 8.7-24.2 20.1-39.6 33.8-39.6 13 .1 15.9 7.7 4.5 39.3M300 15c-6.8-9.9-18.5-15-34.9-15-10.7 0-21 2.5-30.8 7.1-13.9 6.6-26.5 17.7-36.8 32.4-6.7 9.5-12.4 20.6-16.9 33-8.4 23.4-8.3 42.3.3 54.8 4.9 7.1 15.1 15.5 35.8 15.5h.1c37.7 0 65.8-24.9 83.6-74.2 4.8-12.9 11-37.2-.4-53.6M450.6 2h-80.2c-22.4 0-39.1 11.5-47 32.9l-38.1 105.7H327l19.6-54.3h36.9L394 57.2h-36.7l5.9-16.8c1.2-3 4.2-5.4 8.5-5.4h43.5c.4-.5.7-1.1 1-1.6 9.2-13.3 22.2-23.9 34.4-31.4m36.5 68.6c-11.7 32.5-20.3 40.7-33.1 40.7-12.5 0-16.9-8-5.2-40.4 8.7-24.2 20.1-39.6 33.8-39.6 13 .1 16 7.7 4.5 39.3M527.5 15c-6.9-9.9-18.6-15-35-15-10.7 0-21 2.5-30.7 7.1-13.9 6.6-26.5 17.7-36.8 32.4-6.7 9.5-12.4 20.6-16.9 33-8.4 23.4-8.3 42.3.3 54.8 4.9 7.1 15.1 15.5 35.8 15.5h.1c37.7 0 65.8-24.9 83.6-74.2 4.7-12.9 10.9-37.2-.4-53.6M651 2.1c2.7 2.1 5 4.6 6.9 7.4 4.9 7.2 6.8 15.7 5.7 25.5h25.3l-38.1 105.7h38.1L727 35h48.9l11.9-32.9H651z" class="st0"/></svg>
