<svg xmlns="http://www.w3.org/2000/svg" xml:space="preserve" viewBox="0 0 640 137.9"><path d="M213.4 107.1V20.6h-31.1V0h84.4v20.6h-31.1v86.5h-22.2z"/><path d="M263.2 107.1V29.5h20.6v12.3c4.9-10.4 11.2-12.3 17.9-12.3h7.9v20.7h-6.7c-9.7 0-18.2 5.5-18.2 22.6v34.3h-21.5zm56-28.3V29.6h21.3V74c0 9.1 4.5 15.8 13.5 15.8 8.8 0 14.3-6.7 14.3-15.6V29.7h21.3v77.7h-20.2v-9.8c-5.1 7.7-12.7 11.6-22.4 11.6-17-.2-27.8-11.9-27.8-30.4zm79.4 6.6 18.5-4.2c.9 6 5.6 10.5 15 10.5 7.2 0 11.2-2.9 11.2-6.6 0-2.9-1.6-5.1-8.9-6.7l-12.2-2.6C406.6 72.4 400 65.3 400 52.2c0-13.3 11-24 31.6-24 21.9 0 30.8 13.1 31.6 21.8l-18.6 4.1c-.9-4.6-4.2-9.6-13.5-9.6-5.9 0-10.2 2.6-10.2 6.4 0 3.2 2.2 5 6 5.9l17.7 4.1c13.5 3 19.8 11.2 19.8 22.6 0 12.3-9.8 25.2-32.3 25.2-24.6 0-32.6-14.8-33.5-23.3zm106.7 21.7c-13.8 0-23-7.6-23-22.7V48h-13V29.4h13V12.1l21.3-6.2v23.4h15.6v18.6h-15.6v32.6c0 5.6 2.9 7.9 8.7 7.9h8.1V107h-15.1v.1zm26.7 0V.1h21.3v107H532zm85.3-77.5H640l-32.4 105.5h-22.7l8.9-27.8h-11.7l-21.3-77.7h22.7l16 60.1 17.8-60.1zM0 47h49.9V7.3L89.6 47 49.9 86.8v20.3h48.3V47h44.3V.2H0z"/></svg>
